PathFileType	4	(X/Y/Z)	C:/Users/beibeiliu/ov580/test_trc\sequence.43_training_dense_left.trc
DataRate	CameraRate	NumFrames	NumMarkers	Units	OrigDataRate	OrigDataStartFrame	OrigNumFrames
120	120	14	19	mm	120	57	84
Frame#	Time	ThumbCMC			ThumbMCP			ThumbIP			ThumbTip			IndexMCP			IndexPIP			IndexTip			MiddleMCP			MiddlePIP			MiddleTip			RingMCP			RingPIP			RingTip			PinkyMCP			PinkyPIP			PinkyTip			BackHand1			BackHand2			BackHand3	
		X0	Y0	Z0	X1	Y1	Z1	X2	Y2	Z2	X3	Y3	Z3	X4	Y4	Z4	X5	Y5	Z5	X6	Y6	Z6	X7	Y7	Z7	X8	Y8	Z8	X9	Y9	Z9	X10	Y10	Z10	X11	Y11	Z11	X12	Y12	Z12	X13	Y13	Z13	X14	Y14	Z14	X15	Y15	Z15	X16	Y16	Z16	X17	Y17	Z17	X18	Y18	Z18	
56	0.466667	-217.527	85.7045	44.0097	-190.815	100.065	42.5673	-169.361	106.058	34.4592	-148.244	105.999	29.6758	-182.064	81.709	-8.73239	-155.929	87.5446	-0.299456	-153.052	88.8058	27.1034	-169.61	64.2252	-4.90727	-148.565	69.5613	16.4821	-166.621	67.8982	42.7281	-170.86	47.5858	7.63536	-155.671	56.9793	32.5929	-177.701	61.9829	47.7485	-173.151	33.2939	17.7611	-160.877	46.4542	35.3187	-183.548	51.8247	52.1178	-215.309	34.6098	16.3176	-237.004	33.4748	39.8799	-230.26	63.8967	24.2284	
57	0.475	-227.689	70.8225	46.9922	-208.867	93.1308	41.6879	-187.112	104.504	31.6916	-168.389	111.262	27.8603	-182.806	77.6887	-5.11201	-161.767	90.6232	4.31617	-166.21	97.4537	31.9761	-166.71	64.468	2.46714	-151.148	80.6354	19.3759	-173.793	77.1199	47.2019	-160.044	55.7384	17.8169	-156.587	72.0831	38.9761	-177.441	68.4195	52.9323	-159.545	39.7943	31.2994	-158.542	58.3998	50.7936	-181.96	57.8658	60.8814	-201.469	24.9904	29.1845	-224.199	22.0146	45.0926	-227.412	43.2947	28.9047	
58	0.483333	-230.827	55.3209	48.1758	-218.345	80.5937	40.1785	-206.899	97.3554	30.6682	-187.349	111.81	23.4912	-183.926	67.5562	0.0958434	-169.407	90.9466	5.67168	-179.47	98.8991	35.9024	-165.006	63.6115	10.7981	-160.277	89.9434	28.529	-181.829	81.6168	50.2846	-156.41	58.608	27.0779	-161.162	79.8504	46.442	-181.368	71.0202	57.7941	-150.338	50.6576	43.4239	-160.169	69.6545	55.9356	-184.555	58.0091	64.4967	-185.934	22.2171	36.2775	-203.761	9.63305	57.9237	-213.058	26.2677	34.7368	
59	0.491667	-225.151	40.559	53.7095	-221.257	68.1283	43.005	-215.025	86.933	31.8595	-201.383	105.152	24.3674	-181.381	67.3666	2.85387	-180.211	94.2028	10.0525	-187.352	98.3835	34.1604	-161.146	69.6789	16.5541	-166.564	94.5998	28.5199	-183.276	81.9645	54.3857	-153.87	69.7311	34.9808	-170.076	85.6203	50.7185	-185.796	66.1276	64.6863	-147.814	60.039	52.0994	-166.438	75.928	65.0882	-181.229	59.8568	67.9961	-168.07	19.9818	51.6996	-182.741	6.36256	68.016	-200.864	18.3324	41.7766	
60	0.5	-218.497	33.0087	57.5933	-220.102	60.3276	48.0336	-218.496	84.3203	34.3713	-210.063	101.068	29.3854	-179.483	63.2774	11.8672	-179.396	92.8762	14.4802	-193.357	97.5747	43.6625	-164.868	73.6295	20.9514	-171.199	97.325	34.9261	-192.368	80.7765	58.6162	-154.424	75.4053	41.7297	-171.882	89.0981	58.9976	-186.459	69.3267	68.0726	-149.074	69.45	57.9028	-167.163	80.5539	70.9641	-182.764	60.6538	76.3893	-159.814	27.3979	53.3826	-173.911	8.5358	74.6072	-185.683	17.8552	50.854	
61	0.508333	-216.198	32.2294	57.9877	-222.629	59.7191	50.1856	-222.247	81.3417	40.513	-215.492	104.178	33.233	-176.766	65.9061	15.8188	-180.962	95.7058	19.9241	-198.744	98.5258	44.3759	-164.994	78.5587	26.2896	-176.007	98.7068	43.763	-192.526	79.1236	62.7863	-153.733	77.6066	48.1944	-175.097	90.2966	61.6174	-185.171	66.5279	74.4891	-148.404	75.7458	64.7543	-171.208	80.9783	74.9375	-181.654	58.7201	75.8447	-155.728	30.8717	57.1687	-168.563	12.2612	74.6921	-186.798	15.3341	50.1899	
62	0.516667	-219.137	34.3727	58.6649	-221.913	64.6018	47.9586	-219.385	82.788	41.6545	-208.208	105.82	34.3779	-178.746	69.6135	13.2533	-180.962	96.0516	18.5486	-194.56	96.9494	48.0534	-165.389	75.999	26.222	-177.41	98.688	43.4376	-189.25	79.2793	64.9631	-154.922	77.5624	46.8152	-173.779	89.9709	60.017	-185.492	64.4816	72.6127	-148.716	71.2422	62.2681	-169.21	79.794	75	-182.789	56.0055	78.0181	-162.952	24.4891	56.6932	-175.869	10.3383	72.5652	-189.836	17.8712	49.6248	
63	0.525	-221.407	44.3983	57.2014	-218.92	73.2222	47.9959	-208.714	91.4488	39.8469	-190.573	108.525	35.7675	-177.918	68.8065	11.2942	-172.135	96.2159	19.5033	-185.626	97.8781	46.4062	-160.068	72.9771	23.9963	-164.164	95.4268	39.9018	-184.87	79.9724	60.4329	-151.791	66.366	41.7686	-165.369	84.9062	58.7923	-180.369	65.4455	70.8468	-146.77	58.8575	55.6246	-160.387	74.3133	72.556	-181.356	55.8415	72.2776	-172.276	21.872	50.9581	-183.839	5.28096	70.8575	-199.523	21.0115	43.5759	
64	0.533333	-218.774	55.2039	55.2278	-207.982	82.6957	49.9236	-188.44	99.0248	36.0443	-166.989	102.565	34.8499	-173.458	63.8514	5.75397	-158.53	86.9515	14.5038	-168.402	93.5745	38.5474	-158.604	60.6563	15.7048	-149.919	81.8255	36.4211	-172.137	73.2271	57.7716	-146.486	51.6582	35.3508	-151.362	71.6474	53.3947	-175.521	60.038	64.7879	-147.919	43.2986	48.9908	-153.71	61.0058	65.9131	-176.151	50.4644	73.6151	-183.851	15.5637	46.2272	-201.412	8.54841	65.6566	-210.983	28.6017	42.9862	
65	0.541667	-212.625	64.7442	55.3083	-186.507	81.8026	44.3338	-169.242	87.528	37.8825	-145.979	84.2475	27.8275	-182.027	54.1943	0.348236	-153.063	65.7889	3.44098	-153.783	75.3798	32.6252	-163.878	44.3329	6.01896	-142.317	55.9065	23.8901	-157.897	57.8527	49.6228	-156.428	33.9092	22.6055	-148.22	49.9517	42.3413	-169.479	47.9683	58.9104	-154.861	23.6851	38.1306	-150.998	37.5064	56.3604	-177.092	43.3	61.7406	-202.297	13.9205	42.8228	-217.199	10.2436	59.9412	-221.295	33.5974	42.24	
66	0.55	-204.135	66.3762	50.0872	-176.111	71.2366	37.3389	-157.634	65.8309	21.9798	-139.483	55.3146	8.99357	-194.913	48.8258	-10.0139	-164.691	47.0758	-15.5269	-153.621	53.2856	12.6054	-182.007	28.0778	-8.88649	-155.03	33.2945	-2.35609	-162.541	39.0976	32.2291	-176.842	14.603	5.91265	-156.573	22.3868	22.3175	-170.467	33.2688	42.0904	-180.606	1.23178	20.3732	-164.002	15.7758	33.0766	-179.939	25.971	50.8858	-223.157	16.9744	34.9268	-231.005	18.8289	56.6214	-230.468	43.5342	39.5925	
67	0.558333	-198.905	59.6708	34.6514	-174.978	50.748	17.1248	-161.928	42.5229	-3.71534	-157.774	23.9781	-19.6477	-211.352	43.2999	-25.3388	-187.097	33.7626	-37.2493	-167.271	31.3071	-14.6864	-208.97	22.245	-25.471	-180.431	13.3223	-24.2146	-175.888	17.489	6.44845	-207.286	6.62355	-14.8763	-181.417	6.23835	-2.55998	-186.282	18.1473	20.1716	-207.892	-6.79652	-1.57474	-187.518	-0.758322	10.4019	-197.113	16.6053	27.9159	-241.371	22.5957	23.42	-240.58	27.0965	46.3474	-233.515	49.7551	30.4038	
68	0.566667	-199.721	49.1654	12.0168	-182.193	35.4252	-10.9851	-179.019	25.9071	-29.9233	-176.998	9.72052	-50.681	-224.651	43.9204	-49.7344	-205.571	24.7743	-62.6295	-190.38	14.3249	-42.8257	-231.615	22.9718	-49.0883	-209.406	5.14377	-53.1629	-194.361	6.55241	-24.7306	-233.637	9.10485	-38.1975	-208.118	-2.97788	-33.7121	-202.179	2.51017	-8.71148	-238.393	-8.17546	-25.2112	-212.789	-7.90643	-20.6439	-209.438	8.737	-2.4209	-252.757	28.7883	2.2386	-251.101	30.1755	30.007	-236.817	49.588	11.0674	
69	0.575	-206.325	40.5293	-13.1577	-194.583	26.4209	-41.5404	-191.088	18.7192	-62.3723	-193.368	4.85244	-80.9737	-231.75	48.6638	-75.2327	-221.736	25.4507	-90.1278	-207.203	9.44124	-74.1089	-245.284	25.2129	-75.829	-229.488	4.53602	-82.3712	-210.663	0.453934	-53.7351	-252.278	10.0518	-63.4462	-231.466	-6.58555	-65.911	-215.952	-1.84293	-42.7	-258.025	-2.70834	-52.1498	-233.809	-9.43219	-52.8046	-220.632	-1.65219	-34.4849	-261.26	33.7104	-16.0472	-254.227	32.3531	10.6182	-238.714	50.8167	-11.2349	
